<svg xmlns:xlink="http://www.w3.org/1999/xlink" version="1.1" id="Layer_1" xmlns="http://www.w3.org/2000/svg" x="0px"
     y="0px"
     width="100%" viewBox="0 0 180 180" enable-background="new 0 0 180 180" xml:space="preserve">
<path fill="#FFFEFD" opacity="1.000000" stroke="none"
      d="
M95.000000,181.000000 
	C63.333336,181.000000 32.166672,181.000000 1.000004,181.000000 
	C1.000003,121.000008 1.000003,61.000011 1.000001,1.000012 
	C60.999989,1.000008 120.999977,1.000008 180.999969,1.000004 
	C180.999985,60.999989 180.999985,120.999977 181.000000,180.999985 
	C152.500000,181.000000 124.000000,181.000000 95.000000,181.000000 
M145.742401,32.152386 
	C144.879166,26.248491 144.015930,20.344597 143.152695,14.440702 
	C142.642212,14.382607 142.131729,14.324512 141.621246,14.266417 
	C138.776520,23.056242 132.833725,28.891359 125.005386,33.219799 
	C122.656410,34.518600 120.800095,36.981224 119.157356,39.231373 
	C114.893478,45.071854 115.307663,51.137287 120.076431,57.668846 
	C121.210014,58.810345 122.163475,60.260361 123.505913,61.044140 
	C133.537857,66.901306 143.378098,62.639584 148.947433,51.323425 
	C151.546494,46.042488 156.205795,41.768192 159.986923,37.082542 
	C160.738205,36.151524 161.743134,35.425163 163.505234,33.796467 
	C156.778671,33.490871 151.261276,33.240208 145.742401,32.152386 
M55.402840,159.110168 
	C66.251091,164.713287 77.839211,167.561951 89.989075,167.692245 
	C137.227921,168.198853 173.107056,127.306526 166.878204,80.220375 
	C166.035614,73.850960 161.813110,70.165321 156.207596,70.906479 
	C150.633148,71.643524 147.905518,76.154411 148.683029,82.776527 
	C149.863235,92.828491 149.350327,102.754242 145.378738,112.230423 
	C131.642365,145.005371 95.627205,158.447479 63.551907,142.810303 
	C39.716850,131.190369 26.575254,101.456398 34.057636,76.077049 
	C42.818531,46.361153 70.584442,29.041704 101.212700,34.187965 
	C107.787560,35.292698 112.354080,32.618858 113.387268,27.059376 
	C114.357224,21.840160 110.997604,17.554228 104.771996,16.327711 
	C93.132423,14.034582 81.502167,14.492088 70.137779,17.661476 
	C39.440514,26.222565 17.370480,52.120747 14.089281,82.991661 
	C10.753967,114.371727 26.473864,143.687973 55.402840,159.110168 
M77.471031,84.572266 
	C78.756401,86.675415 79.619179,89.298714 81.422760,90.764015 
	C84.384300,93.170082 84.569534,95.861465 83.999138,99.140587 
	C83.288635,103.225075 82.754082,107.340454 82.161415,111.445068 
	C81.655083,114.951797 83.019119,116.887070 86.732704,116.862114 
	C90.056091,116.839775 93.381721,116.784653 96.702774,116.875252 
	C101.003654,116.992599 102.266823,114.868660 101.585083,110.884926 
	C100.885956,106.799522 100.644714,102.623947 99.754372,98.586800 
	C99.036461,95.331505 99.716904,93.317703 102.308037,90.946571 
	C109.698624,84.183540 107.975220,72.668938 99.264725,67.702286 
	C93.953445,64.673836 88.739777,64.986099 83.746208,68.244835 
	C78.132118,71.908516 76.208221,77.267143 77.471031,84.572266 
z"/>
    <path fill="#F69552" opacity="1.000000" stroke="none"
          d="
M55.067215,158.948105 
	C26.473864,143.687973 10.753967,114.371727 14.089281,82.991661 
	C17.370480,52.120747 39.440514,26.222565 70.137779,17.661476 
	C81.502167,14.492088 93.132423,14.034582 104.771996,16.327711 
	C110.997604,17.554228 114.357224,21.840160 113.387268,27.059376 
	C112.354080,32.618858 107.787560,35.292698 101.212700,34.187965 
	C70.584442,29.041704 42.818531,46.361153 34.057636,76.077049 
	C26.575254,101.456398 39.716850,131.190369 63.551907,142.810303 
	C95.627205,158.447479 131.642365,145.005371 145.378738,112.230423 
	C149.350327,102.754242 149.863235,92.828491 148.683029,82.776527 
	C147.905518,76.154411 150.633148,71.643524 156.207596,70.906479 
	C161.813110,70.165321 166.035614,73.850960 166.878204,80.220375 
	C173.107056,127.306526 137.227921,168.198853 89.989075,167.692245 
	C77.839211,167.561951 66.251091,164.713287 55.067215,158.948105 
z"/>
    <path fill="#F59654" opacity="1.000000" stroke="none"
          d="
M77.355911,84.180527 
	C76.208221,77.267143 78.132118,71.908516 83.746208,68.244835 
	C88.739777,64.986099 93.953445,64.673836 99.264725,67.702286 
	C107.975220,72.668938 109.698624,84.183540 102.308037,90.946571 
	C99.716904,93.317703 99.036461,95.331505 99.754372,98.586800 
	C100.644714,102.623947 100.885956,106.799522 101.585083,110.884926 
	C102.266823,114.868660 101.003654,116.992599 96.702774,116.875252 
	C93.381721,116.784653 90.056091,116.839775 86.732704,116.862114 
	C83.019119,116.887070 81.655083,114.951797 82.161415,111.445068 
	C82.754082,107.340454 83.288635,103.225075 83.999138,99.140587 
	C84.569534,95.861465 84.384300,93.170082 81.422760,90.764015 
	C79.619179,89.298714 78.756401,86.675415 77.355911,84.180527 
z"/>
    <path fill="#9CCD7F" opacity="1.000000" stroke="none"
          d="
M145.743896,32.989548 
	C151.261276,33.240208 156.778671,33.490871 163.505234,33.796467 
	C161.743134,35.425163 160.738205,36.151524 159.986923,37.082542 
	C156.205795,41.768192 151.546494,46.042488 148.947433,51.323425 
	C143.378098,62.639584 133.537857,66.901306 123.505913,61.044140 
	C122.163475,60.260361 121.210014,58.810345 120.322220,57.082905 
	C124.056671,43.409847 132.742462,35.888721 145.743896,32.989548 
z"/>
    <path fill="#589D6B" opacity="1.000000" stroke="none"
          d="
M145.743149,32.570969 
	C132.742462,35.888721 124.056671,43.409847 120.307495,56.731079 
	C115.307663,51.137287 114.893478,45.071854 119.157356,39.231373 
	C120.800095,36.981224 122.656410,34.518600 125.005386,33.219799 
	C132.833725,28.891359 138.776520,23.056242 141.621246,14.266417 
	C142.131729,14.324512 142.642212,14.382607 143.152695,14.440702 
	C144.015930,20.344597 144.879166,26.248491 145.743149,32.570969 
z"/>
</svg>